<?xml version="1.0" encoding="iso-8859-1"?>
<!-- Uploaded to: SVG Repo, www.svgrepo.com, Generator: SVG Repo Mixer Tools -->
<!DOCTYPE svg PUBLIC "-//W3C//DTD SVG 1.1//EN" "http://www.w3.org/Graphics/SVG/1.1/DTD/svg11.dtd">
<svg height="800px" width="800px" version="1.1" id="Capa_1" xmlns="http://www.w3.org/2000/svg" xmlns:xlink="http://www.w3.org/1999/xlink" 
	 viewBox="0 0 187.435 187.435" xml:space="preserve">
<g>
	<path style="fill:#71C994;" d="M187.435,178.179c0,5.112-4.144,9.256-9.257,9.256H9.256c-5.111,0-9.256-4.143-9.256-9.256V9.256
		C0,4.144,4.145,0,9.256,0h168.922c5.113,0,9.257,4.144,9.257,9.256V178.179z"/>
	<path style="fill:#45A366;" d="M187.435,178.179V75.866l-85.086-39.621l21.617,32.419l-1.352,17.574L47.317,146.56l97.111,40.875
		h33.749C183.291,187.435,187.435,183.291,187.435,178.179z"/>
	<g>
		<g>
			<path style="fill:#D84C30;" d="M93.718,91.145l-61.799-3.516l15.398,58.931c0,0,1.02,4.76,8.499,4.76h37.816h0.173h37.816
				c7.48,0,8.499-4.76,8.499-4.76l15.397-58.931L93.718,91.145z"/>
			<path style="fill:#ED6845;" d="M156.692,83.134c0,6.023-5.48,10.905-12.238,10.905H42.981c-6.758,0-12.237-4.882-12.237-10.905
				v-9.805c0-6.022,5.479-10.904,12.237-10.904h101.474c6.757,0,12.238,4.882,12.238,10.904V83.134z"/>
			<g>
				<path style="fill:#AF2214;" d="M61.423,141.461c0,1.878-1.521,3.399-3.399,3.399l0,0c-1.878,0-3.399-1.521-3.399-3.399v-38.754
					c0-1.877,1.521-3.399,3.399-3.399l0,0c1.878,0,3.399,1.522,3.399,3.399V141.461z"/>
				<path style="fill:#AF2214;" d="M71.622,141.461c0,1.878-1.522,3.399-3.399,3.399l0,0c-1.878,0-3.399-1.521-3.399-3.399v-38.754
					c0-1.877,1.521-3.399,3.399-3.399l0,0c1.877,0,3.399,1.522,3.399,3.399V141.461z"/>
				<path style="fill:#AF2214;" d="M81.82,141.461c0,1.878-1.522,3.399-3.4,3.399l0,0c-1.877,0-3.399-1.521-3.399-3.399v-38.754
					c0-1.877,1.522-3.399,3.399-3.399l0,0c1.878,0,3.4,1.522,3.4,3.399V141.461z"/>
				<path style="fill:#AF2214;" d="M92.019,141.461c0,1.878-1.522,3.399-3.4,3.399l0,0c-1.877,0-3.399-1.521-3.399-3.399v-38.754
					c0-1.877,1.523-3.399,3.399-3.399l0,0c1.878,0,3.4,1.522,3.4,3.399V141.461z"/>
				<path style="fill:#AF2214;" d="M102.217,141.461c0,1.878-1.523,3.399-3.401,3.399l0,0c-1.876,0-3.398-1.521-3.398-3.399v-38.754
					c0-1.877,1.522-3.399,3.398-3.399l0,0c1.878,0,3.401,1.522,3.401,3.399V141.461z"/>
				<path style="fill:#AF2214;" d="M112.415,141.461c0,1.878-1.521,3.399-3.399,3.399l0,0c-1.877,0-3.398-1.521-3.398-3.399v-38.754
					c0-1.877,1.521-3.399,3.398-3.399l0,0c1.878,0,3.399,1.522,3.399,3.399V141.461z"/>
				<path style="fill:#AF2214;" d="M122.613,141.461c0,1.878-1.522,3.399-3.399,3.399l0,0c-1.877,0-3.398-1.521-3.398-3.399v-38.754
					c0-1.877,1.521-3.399,3.398-3.399l0,0c1.877,0,3.399,1.522,3.399,3.399V141.461z"/>
				<path style="fill:#AF2214;" d="M132.813,141.461c0,1.878-1.522,3.399-3.4,3.399l0,0c-1.876,0-3.398-1.521-3.398-3.399v-38.754
					c0-1.877,1.521-3.399,3.398-3.399l0,0c1.878,0,3.4,1.522,3.4,3.399V141.461z"/>
			</g>
		</g>
		<g>
			<path style="fill:#4A4C4C;" d="M61.562,69.491c-1.639,1.639-3.995,1.94-5.263,0.672l-2.44-2.439
				c-1.268-1.269-0.968-3.624,0.671-5.263l24.889-24.889c1.638-1.639,3.995-1.94,5.262-0.671l2.439,2.44
				c1.268,1.268,0.967,3.624-0.671,5.263L61.562,69.491z"/>
			<path style="fill:#4A4C4C;" d="M104.619,37.573c-1.64-1.639-3.995-1.94-5.262-0.671l-2.441,2.44
				c-1.267,1.268-0.967,3.623,0.672,5.262l24.888,24.888c1.639,1.639,3.994,1.94,5.262,0.672l2.44-2.439
				c1.269-1.269,0.967-3.624-0.671-5.263L104.619,37.573z"/>
		</g>
	</g>
</g>
</svg>